<?xml version="1.0" encoding="UTF-8" standalone="no"?>
<!-- Created with Inkscape (http://www.inkscape.org/) -->

<svg
   width="1023.9999"
   height="1023.9999"
   viewBox="0 0 270.93333 270.93333"
   version="1.1"
   id="svg1"
   xml:space="preserve"
   xmlns:xlink="http://www.w3.org/1999/xlink"
   xmlns="http://www.w3.org/2000/svg"
   xmlns:svg="http://www.w3.org/2000/svg"
   xmlns:rdf="http://www.w3.org/1999/02/22-rdf-syntax-ns#"
   xmlns:cc="http://creativecommons.org/ns#"
   xmlns:dc="http://purl.org/dc/elements/1.1/"><title
     id="title1">SameView App - Logo</title><defs
     id="defs1"><linearGradient
       id="linearGradient71"><stop
         style="stop-color:#0f172a;stop-opacity:0.20744681;"
         offset="1"
         id="stop72" /><stop
         style="stop-color:#0f172a;stop-opacity:1;"
         offset="1"
         id="stop71" /></linearGradient><linearGradient
       id="linearGradient69"><stop
         style="stop-color:#f1f1f1;stop-opacity:0.68617022;"
         offset="0"
         id="stop69" /><stop
         style="stop-color:#7b7b7b;stop-opacity:0;"
         offset="0.76500952"
         id="stop70" /></linearGradient><linearGradient
       xlink:href="#linearGradient71"
       id="linearGradient98"
       gradientUnits="userSpaceOnUse"
       gradientTransform="matrix(0.89289626,0,0,0.89289653,16.629406,7.8773166)"
       x1="93.652184"
       y1="62.779335"
       x2="130.77982"
       y2="170.6058" /><linearGradient
       xlink:href="#linearGradient69"
       id="linearGradient100"
       gradientUnits="userSpaceOnUse"
       gradientTransform="matrix(0.89289778,0,0,0.89289778,23.86536,17.244762)"
       x1="121.4902"
       y1="119.92274"
       x2="194.79333"
       y2="207.28201" /></defs><g
     id="g52"
     style="display:inline"
     transform="matrix(1.0960923,0,0,1.0960923,-8.5086151,-12.649893)"><g
       style="display:inline;fill:none"
       id="g7"
       transform="matrix(1.2359056,0,0,1.2359056,7.7626851,11.540905)"><path
         d="m 100,0 c 75.829,0 100,24.1711 100,100 0,75.829 -24.171,100 -100,100 C 24.171,200 0,175.829 0,100 0,24.1711 24.171,0 100,0 Z"
         fill="#fe3838"
         id="path2"
         style="display:inline;fill:#0f172a;fill-opacity:1;stroke:none;stroke-opacity:1" /></g><g
       id="g74"
       transform="translate(0.02908058,2.5105627)"
       style="display:inline"><g
         id="g68"
         style="fill:#0f172a;fill-opacity:1"
         transform="matrix(0.90082871,0,0,0.90082871,9.1184142,11.344964)"><g
           id="g67"
           transform="translate(-36.987981,-56.716408)"
           style="display:inline;fill:#0f172a;fill-opacity:1"><path
             style="fill:#0f172a;fill-opacity:1;stroke:#b19400;stroke-width:4.04132;stroke-linecap:round;stroke-linejoin:round;stroke-dasharray:none;stroke-opacity:1"
             d="m 122.65232,190.76361 19.06307,-36.42408 17.70142,36.41364"
             id="path66" /><path
             style="display:inline;fill:#0f172a;fill-opacity:1;stroke:#b19400;stroke-width:4.04132;stroke-linecap:round;stroke-linejoin:round;stroke-dasharray:none;stroke-opacity:1"
             d="m 142.42551,190.75317 22.46719,-23.57173 20.08431,23.57173"
             id="path67" /><path
             style="display:inline;fill:none;fill-opacity:1;stroke:#b19400;stroke-width:1.83338;stroke-linecap:round;stroke-linejoin:round;stroke-dasharray:none;stroke-opacity:1"
             d="m 122.641,191.89656 h 62.4603"
             id="path71" /></g><ellipse
           style="display:inline;fill:#0f172a;fill-opacity:1;stroke:#b19400;stroke-width:2.55815;stroke-linecap:round;stroke-linejoin:round;stroke-dasharray:none;stroke-opacity:1"
           id="ellipse65"
           cx="141.46893"
           cy="94.869835"
           rx="6.4918237"
           ry="6.4918242" /><path
           id="rect62-8"
           style="display:inline;fill:url(#linearGradient98);stroke:#b19400;stroke-width:3.60853;stroke-dasharray:none;stroke-opacity:1"
           d="m 76.646993,72.924362 h 80.359287 c 4.9468,0 8.92891,4.625073 8.92891,10.370146 v 57.554352 c 0,5.74517 -3.98211,10.37006 -8.92891,10.37006 H 76.646993 c -4.946569,0 -8.928815,-4.62489 -8.928815,-10.37006 V 83.294508 c 0,-5.745073 3.982246,-10.370146 8.928815,-10.370146 z" /></g><g
         id="g66"
         transform="matrix(0.9482402,0,0,0.9482402,-10.650602,-3.6110683)"><path
           id="rect62"
           style="fill:url(#linearGradient100);stroke:#2573e8;stroke-width:3.60849;stroke-dasharray:none;stroke-opacity:1"
           d="m 124.89006,124.17765 h 80.35944 c 4.94658,0 8.92884,4.62509 8.92884,10.37017 v 57.55439 c 0,5.74506 -3.98226,10.37016 -8.92884,10.37016 h -80.35944 c -4.94657,0 -8.92883,-4.6251 -8.92883,-10.37016 v -57.55439 c 0,-5.74508 3.98226,-10.37017 8.92883,-10.37017 z" /><g
           id="g65"
           transform="translate(11.37253,-4.2644198)"><path
             style="fill:none;fill-opacity:0.643805;stroke:#2573e8;stroke-width:4.04132;stroke-linecap:round;stroke-linejoin:round;stroke-dasharray:none;stroke-opacity:1"
             d="m 124.63783,191.09268 19.39802,-36.75315 17.36647,36.75323"
             id="path64" /><path
             style="display:inline;fill:none;fill-opacity:0.643805;stroke:#2573e8;stroke-width:4.04132;stroke-linecap:round;stroke-linejoin:round;stroke-dasharray:none;stroke-opacity:1"
             d="m 144.41102,191.09268 20.91767,-23.68988 17.42799,23.68988"
             id="path64-1" /><path
             style="display:inline;fill:none;fill-opacity:1;stroke:#2573e8;stroke-width:1.64399;stroke-linecap:round;stroke-linejoin:round;stroke-dasharray:none;stroke-opacity:1"
             d="m 124.79089,192.31965 57.56328,3e-5"
             id="path72" /></g><ellipse
           style="display:inline;fill:none;fill-opacity:0.643805;stroke:#2573e8;stroke-width:2.54564;stroke-linecap:round;stroke-linejoin:round;stroke-dasharray:none;stroke-opacity:1"
           id="path65"
           cx="185.10898"
           cy="147.50562"
           rx="6.6187758"
           ry="6.6187768" /></g><g
         id="g73-2-5-7"
         transform="matrix(0,-0.91233193,0.91233193,0,-5.2591686,282.8949)"
         style="display:none"><path
           style="fill:#0f172a;fill-opacity:1;stroke:#ffffff;stroke-width:3.44073;stroke-linecap:round;stroke-linejoin:round;stroke-dasharray:none;stroke-opacity:1"
           d="m 112.23033,123.62066 h 11.26783 v 0"
           id="path73-3-7-9" /><path
           style="fill:#0f172a;fill-opacity:1;stroke:#ffffff;stroke-width:3.44073;stroke-linecap:round;stroke-linejoin:round;stroke-dasharray:none;stroke-opacity:1"
           d="m 112.22739,135.17706 v -11.26783 0"
           id="path73-2-2-6-5" /></g><g
         id="g73-2-5-7-7"
         transform="matrix(0,0.91233193,0.91233193,0,-5.2591653,20.764328)"
         style="display:none"><path
           style="fill:#0f172a;fill-opacity:1;stroke:#ffffff;stroke-width:3.44073;stroke-linecap:round;stroke-linejoin:round;stroke-dasharray:none;stroke-opacity:1"
           d="m 112.23033,123.62066 h 11.26783 v 0"
           id="path73-3-7-9-4" /><path
           style="fill:#0f172a;fill-opacity:1;stroke:#ffffff;stroke-width:3.44073;stroke-linecap:round;stroke-linejoin:round;stroke-dasharray:none;stroke-opacity:1"
           d="m 112.22739,135.17706 v -11.26783 0"
           id="path73-2-2-6-5-2" /></g><g
         id="g73-2-5-7-7-5"
         transform="matrix(0,0.70820644,0.70820644,0,-10.000348,4.7961614)"
         style="display:none"><path
           style="fill:#0f172a;fill-opacity:1;stroke:#ffffff;stroke-width:3.44073;stroke-linecap:round;stroke-linejoin:round;stroke-dasharray:none;stroke-opacity:1"
           d="m 112.23033,123.62066 h 11.26783 v 0"
           id="path73-3-7-9-4-0" /><path
           style="fill:#0f172a;fill-opacity:1;stroke:#ffffff;stroke-width:3.44073;stroke-linecap:round;stroke-linejoin:round;stroke-dasharray:none;stroke-opacity:1"
           d="m 112.22739,135.17706 v -11.26783 0"
           id="path73-2-2-6-5-2-9" /></g><g
         id="g73-2-5-7-7-1"
         transform="matrix(0,0.91233193,-0.91233193,0,296.00083,20.764328)"
         style="display:none"><path
           style="fill:#0f172a;fill-opacity:1;stroke:#ffffff;stroke-width:3.44073;stroke-linecap:round;stroke-linejoin:round;stroke-dasharray:none;stroke-opacity:1"
           d="m 112.23033,123.62066 h 11.26783 v 0"
           id="path73-3-7-9-4-9" /><path
           style="fill:#0f172a;fill-opacity:1;stroke:#ffffff;stroke-width:3.44073;stroke-linecap:round;stroke-linejoin:round;stroke-dasharray:none;stroke-opacity:1"
           d="m 112.22739,135.17706 v -11.26783 0"
           id="path73-2-2-6-5-2-8" /></g><g
         id="g73-2-5-7-7-1-8"
         transform="matrix(0,-0.91233193,-0.91233193,0,296.00083,282.8949)"
         style="display:none"><path
           style="fill:#0f172a;fill-opacity:1;stroke:#ffffff;stroke-width:3.44073;stroke-linecap:round;stroke-linejoin:round;stroke-dasharray:none;stroke-opacity:1"
           d="m 112.23033,123.62066 h 11.26783 v 0"
           id="path73-3-7-9-4-9-6" /><path
           style="fill:#0f172a;fill-opacity:1;stroke:#ffffff;stroke-width:3.44073;stroke-linecap:round;stroke-linejoin:round;stroke-dasharray:none;stroke-opacity:1"
           d="m 112.22739,135.17706 v -11.26783 0"
           id="path73-2-2-6-5-2-8-0" /></g><path
         id="rect101-5"
         style="display:inline;fill:none;fill-opacity:1;stroke:#ffffff;stroke-width:2.35456;stroke-linecap:round;stroke-linejoin:round;stroke-dasharray:none;stroke-opacity:1"
         d="m 80.250572,84.291839 c -3.567319,-0.04394 -2.66395,0.695399 -2.861354,4.582172 l -0.20178,3.972767 c 1.720305,-8.952479 -4.504828,-9.19307 8.451474,-8.488541 z" /><g
         id="g105"
         transform="translate(0.05835394,0.09633185)"><path
           id="rect101"
           style="fill:none;fill-opacity:1;stroke:#ffffff;stroke-width:2.62026;stroke-linecap:round;stroke-linejoin:round;stroke-dasharray:none;stroke-opacity:1"
           d="m 110.52429,121.58127 c -3.96987,-0.0489 -2.96456,0.77387 -3.18424,5.09924 l -0.22455,4.42107 c 1.91443,-9.96271 -5.01317,-10.23045 9.40517,-9.44642 z" /><path
           id="rect101-4"
           style="display:inline;fill:none;fill-opacity:1;stroke:#ffffff;stroke-width:2.62026;stroke-linecap:round;stroke-linejoin:round;stroke-dasharray:none;stroke-opacity:1"
           d="m 181.10941,121.58127 c 3.96987,-0.0489 2.96456,0.77387 3.18424,5.09924 l 0.22455,4.42107 c -1.91443,-9.96271 5.01317,-10.23045 -9.40517,-9.44642 z" /><path
           id="rect101-8"
           style="display:inline;fill:none;fill-opacity:1;stroke:#ffffff;stroke-width:2.62026;stroke-linecap:round;stroke-linejoin:round;stroke-dasharray:none;stroke-opacity:1"
           d="m 110.52429,180.74661 c -3.96987,0.0489 -2.96456,-0.77387 -3.18424,-5.09924 l -0.22455,-4.42107 c 1.91443,9.96271 -5.01317,10.23045 9.40517,9.44642 z" /><path
           id="rect101-4-8"
           style="display:inline;fill:none;fill-opacity:1;stroke:#ffffff;stroke-width:2.62026;stroke-linecap:round;stroke-linejoin:round;stroke-dasharray:none;stroke-opacity:1"
           d="m 181.10941,180.74661 c 3.96987,0.0489 2.96456,-0.77387 3.18424,-5.09924 l 0.22455,-4.42107 c -1.91443,9.96271 5.01317,10.23045 -9.40517,9.44642 z" /></g></g></g><g
     id="g41"
     style="display:none"
     transform="matrix(1.0960923,0,0,1.0960923,-12.82655,-18.055602)"><g
       style="display:inline;fill:none"
       id="g1"
       transform="matrix(1.2359056,0,0,1.2359056,11.702076,16.472707)"><path
         d="m 100,0 c 75.829,0 100,24.1711 100,100 0,75.829 -24.171,100 -100,100 C 24.171,200 0,175.829 0,100 0,24.1711 24.171,0 100,0 Z"
         fill="#fe3838"
         id="path1"
         style="display:inline;fill:#0f172a;fill-opacity:1;stroke:none;stroke-opacity:1" /></g><g
       id="g5"
       transform="translate(3.4536128,-11.564166)"
       style="display:none"><path
         id="path3"
         style="display:inline;fill:#60a5fa;fill-opacity:1;stroke-width:0.213401"
         d="m 132.0371,88.889048 a 10.670176,10.670176 0 0 1 10.53478,10.66949 10.670176,10.670176 0 0 1 -10.53478,10.669192 z" /><path
         id="path4"
         style="display:inline;fill:#c98a47;fill-opacity:1;stroke-width:0.213386"
         d="m 131.88735,88.889363 c 0.0446,-6.6e-5 0.0902,1.42e-4 0.1354,6.68e-4 v 21.336949 c -0.0446,6e-4 -0.0902,7.4e-4 -0.1354,7.4e-4 -5.89248,0 -10.66932,-4.77688 -10.66932,-10.669322 -2e-5,-5.89252 4.77683,-10.669351 10.66932,-10.66935 z" /></g><path
       id="path5"
       style="display:inline;fill:#ffffff;fill-opacity:1;stroke:none;stroke-width:2.41388;stroke-dasharray:none;stroke-opacity:1"
       d="m 118.27621,92.02709 -21.160568,34.54533 -3.708037,-6.56933 -26.924171,46.87685 v 10.46454 h 67.360876 v -52.76917 z m 11.49562,41.08025 -0.42243,20.26714 -9.92236,-10.13357 z" /><path
       style="display:inline;fill:#ffffff;fill-opacity:1;stroke:none;stroke-width:2.41388;stroke-dasharray:none;stroke-opacity:1"
       d="m 196.31343,177.34465 -37.65206,-56.15057 9.99363,-9.38411 35.43764,54.90535 v 10.62933 z"
       id="path7" /><path
       id="path8"
       style="display:inline;fill:#ffffff;fill-opacity:1;stroke:none;stroke-width:2.41388;stroke-dasharray:none;stroke-opacity:1"
       d="m 149.49303,100.67462 -12.75207,23.07092 v 53.59894 h 59.86041 z m -8.67959,32.43272 10.34479,10.13357 -9.92283,10.13357 z" /><g
       id="g29"
       style="display:none;fill:#3b82f6;fill-opacity:1"
       transform="translate(9.6072323,-0.60322883)"><rect
         style="display:inline;fill:#3b82f6;fill-opacity:1;stroke-width:0.21584"
         id="rect28"
         width="5.5519199"
         height="32.587357"
         x="207.35545"
         y="58.208332"
         ry="2.5655413"
         rx="2.7451651" /><rect
         style="fill:#3b82f6;fill-opacity:1;stroke-width:0.21584"
         id="rect29"
         width="5.5519199"
         height="32.587357"
         x="-63.66378"
         y="180.28902"
         ry="2.5655413"
         rx="2.7451651"
         transform="rotate(-90)" /></g><g
       id="g31"
       style="display:none;fill:#9f9792;fill-opacity:1"
       transform="matrix(-1,0,0,1,260.81762,-0.60322883)"><rect
         style="display:inline;fill:#9f9792;fill-opacity:1;stroke-width:0.21584"
         id="rect30"
         width="5.5519199"
         height="32.587357"
         x="207.35545"
         y="58.208332"
         ry="2.5655413"
         rx="2.7451651" /><rect
         style="fill:#9f9792;fill-opacity:1;stroke-width:0.21584"
         id="rect31"
         width="5.5519199"
         height="32.587357"
         x="-63.66378"
         y="180.28902"
         ry="2.5655413"
         rx="2.7451651"
         transform="rotate(-90)" /></g><g
       id="g33"
       style="display:none;fill:#3b82f6;fill-opacity:1"
       transform="matrix(1,0,0,-1,9.6072323,280.65845)"><rect
         style="display:inline;fill:#3b82f6;fill-opacity:1;stroke-width:0.21584"
         id="rect32"
         width="5.5519199"
         height="32.587357"
         x="207.35545"
         y="58.208332"
         ry="2.5655413"
         rx="2.7451651" /><rect
         style="fill:#3b82f6;fill-opacity:1;stroke-width:0.21584"
         id="rect33"
         width="5.5519199"
         height="32.587357"
         x="-63.66378"
         y="180.28902"
         ry="2.5655413"
         rx="2.7451651"
         transform="rotate(-90)" /></g><g
       id="g35"
       style="display:none;fill:#9f9792;fill-opacity:1"
       transform="rotate(180,130.40881,140.2928)"><rect
         style="display:inline;fill:#9f9792;fill-opacity:1;stroke-width:0.21584"
         id="rect34"
         width="5.5519199"
         height="32.587357"
         x="207.35545"
         y="58.208332"
         ry="2.5655413"
         rx="2.7451651" /><rect
         style="fill:#9f9792;fill-opacity:1;stroke-width:0.21584"
         id="rect35"
         width="5.5519199"
         height="32.587357"
         x="-63.66378"
         y="180.28902"
         ry="2.5655413"
         rx="2.7451651"
         transform="rotate(-90)" /></g><rect
       style="display:none;fill:#e7e5e1;fill-opacity:1;stroke:none;stroke-width:0;stroke-dasharray:none;stroke-opacity:1"
       id="rect36"
       width="2.1724904"
       height="105.89986"
       x="134.20639"
       y="87.113335"
       ry="2.166729"
       rx="0" /><circle
       style="display:none;fill:none;fill-opacity:1;stroke:#ffffff;stroke-width:1.20694;stroke-dasharray:none;stroke-opacity:1"
       id="circle36"
       cx="135.29263"
       cy="140.06326"
       r="18.189083" /><g
       id="g40"
       transform="matrix(0.75352113,0,0,0.75352113,21.722611,30.087245)" /></g><g
     id="g49"
     style="display:none"
     transform="matrix(1.0960923,0,0,1.0960923,-12.82655,-18.055602)"><g
       style="display:inline;fill:none"
       id="g46"
       transform="matrix(1.2359056,0,0,1.2359056,11.702076,16.472707)"><path
         d="m 100,0 c 75.829,0 100,24.1711 100,100 0,75.829 -24.171,100 -100,100 C 24.171,200 0,175.829 0,100 0,24.1711 24.171,0 100,0 Z"
         fill="#fe3838"
         id="path46"
         style="display:inline;fill:#0f172a;fill-opacity:1;stroke:none;stroke-opacity:1" /></g><g
       id="g50"
       transform="translate(3.4536128,-11.564166)"
       style="display:none"><path
         id="path48"
         style="display:inline;fill:#60a5fa;fill-opacity:1;stroke-width:0.213401"
         d="m 132.0371,88.889048 a 10.670176,10.670176 0 0 1 10.53478,10.66949 10.670176,10.670176 0 0 1 -10.53478,10.669192 z" /><path
         id="path49"
         style="display:inline;fill:#c98a47;fill-opacity:1;stroke-width:0.213386"
         d="m 131.88735,88.889363 c 0.0446,-6.6e-5 0.0902,1.42e-4 0.1354,6.68e-4 v 21.336949 c -0.0446,6e-4 -0.0902,7.4e-4 -0.1354,7.4e-4 -5.89248,0 -10.66932,-4.77688 -10.66932,-10.669322 -2e-5,-5.89252 4.77683,-10.669351 10.66932,-10.66935 z" /></g><path
       style="display:inline;fill:#655e59;fill-opacity:1;stroke:none;stroke-width:6.83341;stroke-dasharray:none;stroke-opacity:1"
       d="m 66.483506,177.34467 v -10.46479 l 26.923982,-46.87702 3.708342,6.56941 21.16052,-34.54518 16.45095,32.54831 0.4535,52.76927 z"
       id="path42" /><path
       style="display:inline;fill:#564e49;fill-opacity:1;stroke:none;stroke-width:6.83341;stroke-dasharray:none;stroke-opacity:1"
       d="M 134.88783,177.34467 134.59486,145.78925 114.9876,117.45841 75.576522,177.34467 Z"
       id="path43" /><path
       style="display:inline;fill:#256fe8;fill-opacity:1;stroke:none;stroke-width:6.85512;stroke-dasharray:none;stroke-opacity:1"
       d="m 153.81557,177.34467 -0.18251,-48.64609 15.02194,-16.88861 35.43764,54.90535 v 10.62935 z"
       id="path44" /><path
       style="display:inline;fill:#3b82f6;fill-opacity:1;stroke:none;stroke-width:6.94088;stroke-dasharray:none;stroke-opacity:1"
       d="m 134.8522,177.34467 -0.16305,-53.59911 14.80377,-23.07114 47.10842,76.67025 z"
       id="path45" /><g
       id="g19-2"
       style="display:inline;fill:#3b82f6;fill-opacity:1"
       transform="translate(9.6072323,-0.60322883)"><rect
         style="display:inline;fill:#3b82f6;fill-opacity:1;stroke-width:0.21584"
         id="rect52"
         width="5.5519199"
         height="32.587357"
         x="207.35545"
         y="58.208332"
         ry="2.5655413"
         rx="2.7451651" /><rect
         style="fill:#3b82f6;fill-opacity:1;stroke-width:0.21584"
         id="rect1"
         width="5.5519199"
         height="32.587357"
         x="-63.66378"
         y="180.28902"
         ry="2.5655413"
         rx="2.7451651"
         transform="rotate(-90)" /></g><g
       id="g20"
       style="display:inline;fill:#9f9792;fill-opacity:1"
       transform="matrix(-1,0,0,1,260.81762,-0.60322883)"><rect
         style="display:inline;fill:#9f9792;fill-opacity:1;stroke-width:0.21584"
         id="rect2"
         width="5.5519199"
         height="32.587357"
         x="207.35545"
         y="58.208332"
         ry="2.5655413"
         rx="2.7451651" /><rect
         style="fill:#9f9792;fill-opacity:1;stroke-width:0.21584"
         id="rect20"
         width="5.5519199"
         height="32.587357"
         x="-63.66378"
         y="180.28902"
         ry="2.5655413"
         rx="2.7451651"
         transform="rotate(-90)" /></g><g
       id="g22"
       style="display:inline;fill:#3b82f6;fill-opacity:1"
       transform="matrix(1,0,0,-1,9.6072323,280.65845)"><rect
         style="display:inline;fill:#3b82f6;fill-opacity:1;stroke-width:0.21584"
         id="rect21"
         width="5.5519199"
         height="32.587357"
         x="207.35545"
         y="58.208332"
         ry="2.5655413"
         rx="2.7451651" /><rect
         style="fill:#3b82f6;fill-opacity:1;stroke-width:0.21584"
         id="rect22"
         width="5.5519199"
         height="32.587357"
         x="-63.66378"
         y="180.28902"
         ry="2.5655413"
         rx="2.7451651"
         transform="rotate(-90)" /></g><g
       id="g28"
       style="display:inline;fill:#9f9792;fill-opacity:1"
       transform="rotate(180,130.40881,140.2928)"><rect
         style="display:inline;fill:#9f9792;fill-opacity:1;stroke-width:0.21584"
         id="rect26"
         width="5.5519199"
         height="32.587357"
         x="207.35545"
         y="58.208332"
         ry="2.5655413"
         rx="2.7451651" /><rect
         style="fill:#9f9792;fill-opacity:1;stroke-width:0.21584"
         id="rect27"
         width="5.5519199"
         height="32.587357"
         x="-63.66378"
         y="180.28902"
         ry="2.5655413"
         rx="2.7451651"
         transform="rotate(-90)" /></g><rect
       style="display:inline;fill:#e7e5e1;fill-opacity:1;stroke:none;stroke-width:0;stroke-dasharray:none;stroke-opacity:1"
       id="rect50"
       width="2.1724904"
       height="105.89986"
       x="134.20639"
       y="87.113335"
       ry="2.166729"
       rx="0" /><circle
       style="fill:#ffffff;fill-opacity:1;stroke-width:0.356123"
       id="path36"
       cx="135.29263"
       cy="140.06326"
       r="18.189083" /><g
       id="g63"
       transform="matrix(0.75352113,0,0,0.75352113,26.454994,30.087245)"><path
         style="fill:#ffffff;fill-opacity:1;stroke:#256fe8;stroke-width:4.06238;stroke-dasharray:none;stroke-opacity:1"
         d="m 140.50505,136.17567 -9.99287,9.78875 9.58488,9.78882 v 0 0"
         id="path37" /><path
         style="fill:#ffffff;fill-opacity:1;stroke:#256fe8;stroke-width:4.06238;stroke-dasharray:none;stroke-opacity:1"
         d="m 148.3725,136.17567 9.9928,9.78875 -9.58487,9.78882 v 0 0"
         id="path38" /></g></g><ellipse
     style="display:none;fill:none;fill-opacity:1;stroke:#ffffff;stroke-width:3.68573;stroke-dasharray:none;stroke-opacity:1"
     id="path23-1"
     cx="135.46666"
     cy="135.46666"
     rx="51.073799"
     ry="42.862591" /><metadata
     id="metadata1"><rdf:RDF><cc:Work
         rdf:about=""><dc:title>SameView App - Logo</dc:title></cc:Work></rdf:RDF></metadata></svg>
